<mxfile host="app.diagrams.net" modified="2023-11-22T02:48:42.720Z" agent="Mozilla/5.0 (Windows NT 10.0; Win64; x64) AppleWebKit/537.36 (KHTML, like Gecko) Chrome/116.0.0.0 Safari/537.36 OPR/102.0.0.0" version="22.1.3" etag="N5uN72YFkYCy3HA9h4Ge" type="github">
  <diagram name="PÃ¡gina-1" id="t26u1MQvTDQMlGAMzPlT">
    <mxGraphModel>
      <root>
        <mxCell id="0" />
        <mxCell id="1" parent="0" />
      </root>
    </mxGraphModel>
  </diagram>
</mxfile>
